<svg width="19" height="20" viewBox="0 0 19 20" xmlns="http://www.w3.org/2000/svg">
<path d="M17.5189 18H1.781C1.48286 18 1.19693 18.1054 0.986113 18.2929C0.775296 18.4804 0.65686 18.7348 0.65686 19C0.65686 19.2652 0.775296 19.5196 0.986113 19.7071C1.19693 19.8946 1.48286 20 1.781 20H17.5189C17.8171 20 18.103 19.8946 18.3138 19.7071C18.5246 19.5196 18.6431 19.2652 18.6431 19C18.6431 18.7348 18.5246 18.4804 18.3138 18.2929C18.103 18.1054 17.8171 18 17.5189 18ZM8.85183 15.71C8.95874 15.801 9.0848 15.8724 9.22279 15.92C9.35735 15.9729 9.50285 16.0002 9.64996 16.0002C9.79708 16.0002 9.94258 15.9729 10.0771 15.92C10.2151 15.8724 10.3412 15.801 10.4481 15.71L14.9447 11.71C15.1563 11.5217 15.2753 11.2663 15.2753 11C15.2753 10.7337 15.1563 10.4783 14.9447 10.29C14.733 10.1017 14.4459 9.99591 14.1465 9.99591C13.8472 9.99591 13.5601 10.1017 13.3484 10.29L10.7741 12.59V1C10.7741 0.734784 10.6557 0.48043 10.4448 0.292893C10.234 0.105357 9.9481 0 9.64996 0C9.35182 0 9.06589 0.105357 8.85508 0.292893C8.64426 0.48043 8.52583 0.734784 8.52583 1V12.59L5.95155 10.29C5.84674 10.1968 5.72231 10.1228 5.58536 10.0723C5.44842 10.0219 5.30164 9.99591 5.15341 9.99591C5.00518 9.99591 4.85841 10.0219 4.72146 10.0723C4.58452 10.1228 4.46009 10.1968 4.35527 10.29C4.25046 10.3832 4.16732 10.4939 4.11059 10.6158C4.05387 10.7376 4.02467 10.8681 4.02467 11C4.02467 11.1319 4.05387 11.2624 4.11059 11.3842C4.16732 11.5061 4.25046 11.6168 4.35527 11.71L8.85183 15.71Z"/>
</svg>
