<?xml version="1.0" standalone="no"?>
<!DOCTYPE svg PUBLIC "-//W3C//DTD SVG 20010904//EN"
 "http://www.w3.org/TR/2001/REC-SVG-20010904/DTD/svg10.dtd">
<svg version="1.0" xmlns="http://www.w3.org/2000/svg"
 width="48.000000pt" height="48.000000pt" viewBox="0 0 48.000000 48.000000"
 preserveAspectRatio="xMidYMid meet">

<g transform="translate(0.000000,48.000000) scale(0.100000,-0.100000)"
fill="#000000" stroke="none">
<path d="M246 460 c-22 -68 -26 -93 -21 -123 6 -31 3 -38 -39 -77 -43 -41 -46
-46 -46 -96 0 -30 8 -72 20 -100 l21 -47 29 28 c16 15 38 49 50 76 11 27 27
49 35 49 21 0 21 83 0 100 -19 16 -19 44 0 95 13 37 21 88 8 58 -6 -17 -23
-17 -23 0 0 7 -6 22 -14 33 -12 16 -15 16 -20 4z m44 -220 c0 -13 -7 -20 -20
-20 -19 0 -27 20 -13 33 13 14 33 6 33 -13z"/>
</g>
</svg>
